<mxfile host="app.diagrams.net" modified="2023-08-14T08:07:38.034Z" agent="Mozilla/5.0 (Windows NT 10.0; Win64; x64; rv:109.0) Gecko/20100101 Firefox/116.0" etag="BYCtOzzh7M0REpl0xI4o" version="21.6.6" type="github">
  <diagram name="Halaman-1" id="Z2Y2EzkyFWW4ku8yWY2m">
    <mxGraphModel dx="1114" dy="602" grid="1" gridSize="10" guides="1" tooltips="1" connect="1" arrows="1" fold="1" page="1" pageScale="1" pageWidth="827" pageHeight="1169" math="0" shadow="0">
      <root>
        <mxCell id="0" />
        <mxCell id="1" parent="0" />
        <mxCell id="rTBuY_4zR4HfR6Nib3n7-3" value="&lt;div&gt;Input n letters&lt;/div&gt;&lt;div&gt;Input n symbols&lt;/div&gt;&lt;div&gt;input n numbers&lt;br&gt;&lt;/div&gt;" style="shape=parallelogram;perimeter=parallelogramPerimeter;whiteSpace=wrap;html=1;fixedSize=1;" parent="1" vertex="1">
          <mxGeometry x="60" y="82" width="140" height="60" as="geometry" />
        </mxCell>
        <mxCell id="rTBuY_4zR4HfR6Nib3n7-4" value="Mulai" style="ellipse;whiteSpace=wrap;html=1;" parent="1" vertex="1">
          <mxGeometry x="70" y="12" width="120" height="40" as="geometry" />
        </mxCell>
        <mxCell id="rTBuY_4zR4HfR6Nib3n7-6" value="&lt;div&gt;Define n number in letters, symbols and number&lt;br&gt;&lt;/div&gt;" style="rounded=1;whiteSpace=wrap;html=1;" parent="1" vertex="1">
          <mxGeometry x="60" y="226" width="140" height="90" as="geometry" />
        </mxCell>
        <mxCell id="rTBuY_4zR4HfR6Nib3n7-7" value="" style="endArrow=classic;html=1;rounded=0;entryX=0.5;entryY=0;entryDx=0;entryDy=0;exitX=0.5;exitY=1;exitDx=0;exitDy=0;" parent="1" source="rTBuY_4zR4HfR6Nib3n7-4" target="rTBuY_4zR4HfR6Nib3n7-3" edge="1">
          <mxGeometry width="50" height="50" relative="1" as="geometry">
            <mxPoint x="120" y="292" as="sourcePoint" />
            <mxPoint x="170" y="242" as="targetPoint" />
          </mxGeometry>
        </mxCell>
        <mxCell id="rTBuY_4zR4HfR6Nib3n7-8" value="" style="endArrow=classic;html=1;rounded=0;entryX=0.5;entryY=0;entryDx=0;entryDy=0;exitX=0.5;exitY=1;exitDx=0;exitDy=0;" parent="1" source="rTBuY_4zR4HfR6Nib3n7-3" target="rTBuY_4zR4HfR6Nib3n7-6" edge="1">
          <mxGeometry width="50" height="50" relative="1" as="geometry">
            <mxPoint x="140" y="94" as="sourcePoint" />
            <mxPoint x="140" y="124" as="targetPoint" />
          </mxGeometry>
        </mxCell>
        <mxCell id="rTBuY_4zR4HfR6Nib3n7-9" value="Merge all list into one list" style="rounded=1;whiteSpace=wrap;html=1;" parent="1" vertex="1">
          <mxGeometry x="70" y="445" width="120" height="60" as="geometry" />
        </mxCell>
        <mxCell id="rTBuY_4zR4HfR6Nib3n7-10" value="Selesai" style="ellipse;whiteSpace=wrap;html=1;" parent="1" vertex="1">
          <mxGeometry x="70" y="535" width="120" height="50" as="geometry" />
        </mxCell>
        <mxCell id="rTBuY_4zR4HfR6Nib3n7-11" value="" style="endArrow=classic;html=1;rounded=0;entryX=0.5;entryY=0;entryDx=0;entryDy=0;exitX=0.5;exitY=1;exitDx=0;exitDy=0;" parent="1" source="rTBuY_4zR4HfR6Nib3n7-13" target="rTBuY_4zR4HfR6Nib3n7-9" edge="1">
          <mxGeometry width="50" height="50" relative="1" as="geometry">
            <mxPoint x="140" y="206" as="sourcePoint" />
            <mxPoint x="140" y="236" as="targetPoint" />
          </mxGeometry>
        </mxCell>
        <mxCell id="rTBuY_4zR4HfR6Nib3n7-12" value="" style="endArrow=classic;html=1;rounded=0;entryX=0.5;entryY=0;entryDx=0;entryDy=0;exitX=0.5;exitY=1;exitDx=0;exitDy=0;" parent="1" source="rTBuY_4zR4HfR6Nib3n7-9" target="rTBuY_4zR4HfR6Nib3n7-10" edge="1">
          <mxGeometry width="50" height="50" relative="1" as="geometry">
            <mxPoint x="150" y="325" as="sourcePoint" />
            <mxPoint x="150" y="355" as="targetPoint" />
          </mxGeometry>
        </mxCell>
        <mxCell id="rTBuY_4zR4HfR6Nib3n7-14" value="" style="endArrow=classic;html=1;rounded=0;entryX=0.5;entryY=0;entryDx=0;entryDy=0;exitX=0.5;exitY=1;exitDx=0;exitDy=0;" parent="1" source="rTBuY_4zR4HfR6Nib3n7-6" target="rTBuY_4zR4HfR6Nib3n7-13" edge="1">
          <mxGeometry width="50" height="50" relative="1" as="geometry">
            <mxPoint x="130" y="316" as="sourcePoint" />
            <mxPoint x="130" y="445" as="targetPoint" />
          </mxGeometry>
        </mxCell>
        <mxCell id="rTBuY_4zR4HfR6Nib3n7-13" value="Make a list each input based on randomisation and looping" style="rounded=1;whiteSpace=wrap;html=1;" parent="1" vertex="1">
          <mxGeometry x="60" y="346" width="140" height="60" as="geometry" />
        </mxCell>
        <mxCell id="rTBuY_4zR4HfR6Nib3n7-15" value="define container for string" style="shape=parallelogram;perimeter=parallelogramPerimeter;whiteSpace=wrap;html=1;fixedSize=1;" parent="1" vertex="1">
          <mxGeometry x="470" y="80" width="136" height="60" as="geometry" />
        </mxCell>
        <mxCell id="rTBuY_4zR4HfR6Nib3n7-17" value="&lt;div&gt;Input n letters&lt;/div&gt;&lt;div&gt;Input n symbols&lt;/div&gt;&lt;div&gt;input n numbers&lt;br&gt;&lt;/div&gt;" style="shape=parallelogram;perimeter=parallelogramPerimeter;whiteSpace=wrap;html=1;fixedSize=1;" parent="1" vertex="1">
          <mxGeometry x="310" y="82" width="140" height="60" as="geometry" />
        </mxCell>
        <mxCell id="rTBuY_4zR4HfR6Nib3n7-18" value="Looping n char to fill string container" style="rounded=1;whiteSpace=wrap;html=1;" parent="1" vertex="1">
          <mxGeometry x="400" y="270" width="120" height="60" as="geometry" />
        </mxCell>
        <mxCell id="rTBuY_4zR4HfR6Nib3n7-19" value="Randomise n char" style="rounded=1;whiteSpace=wrap;html=1;" parent="1" vertex="1">
          <mxGeometry x="400" y="190" width="120" height="60" as="geometry" />
        </mxCell>
        <mxCell id="rTBuY_4zR4HfR6Nib3n7-20" value="Mulai" style="ellipse;whiteSpace=wrap;html=1;" parent="1" vertex="1">
          <mxGeometry x="400" width="120" height="40" as="geometry" />
        </mxCell>
        <mxCell id="rTBuY_4zR4HfR6Nib3n7-21" value="Selesai" style="ellipse;whiteSpace=wrap;html=1;" parent="1" vertex="1">
          <mxGeometry x="400" y="523" width="120" height="50" as="geometry" />
        </mxCell>
      </root>
    </mxGraphModel>
  </diagram>
</mxfile>
